#!OML:ASF H:\ManfredETheater\Project 1\Capture day 1\Session 1\subject.ASF
:FULLY-SPECIFIED
:DEGREES
321
root 0.565256 14.8469 -25.8662 -157.608 -5.61529 171.231
lowerback 21.0005 -4.87552 -3.34448
upperback -0.69846 -7.30973 0.995259
thorax -11.9868 -3.20931 5.24002
lowerneck -20.5057 -0.0582239 -2.3947
upperneck -1.73007 1.17196 2.38654
head 3.01111 1.04052 1.35627
rclavicle -8.7664e-014 -2.36554e-014
rhumerus -84.2862 3.7248 -79.3945
rradius 74.0233
rwrist -18.3398
rhand -28.1867 9.0687
rfingers 7.12502
rthumb -1.56623 -20.9053
lclavicle -8.7664e-014 -2.36554e-014
lhumerus -10.4034 -12.9783 92.8398
lradius 133.96
lwrist 17.8838
lhand -23.6743 -9.95238
lfingers 7.12502
lthumb 2.79187 20.0091
rfemur -89.0979 -14.9995 22.8088
rtibia 87.6465
rfoot -11.4317 -4.55948
rtoes -37.5925
lfemur 4.95755 -7.49658 -26.2719
ltibia 35.0157
lfoot -25.4304 -15.0412
ltoes -14.5906
322
root 0.57826 14.8548 -26.2277 -157.167 -5.24363 171.555
lowerback 20.5726 -4.86256 -2.98891
upperback -0.86077 -7.14863 1.2452
thorax -11.9545 -3.14161 5.23585
lowerneck -20.4878 0.0118416 -2.57406
upperneck -1.62007 1.29698 2.18566
head 3.04355 1.08478 1.33291
rclavicle 2.97183e-014 1.78906e-015
rhumerus -85.912 4.22613 -79.4592
rradius 74.9232
rwrist -17.6903
rhand -27.7548 9.63693
rfingers 7.12502
rthumb -1.14914 -20.3397
lclavicle 2.97183e-014 1.78906e-015
lhumerus -10.5925 -14.0023 92.0964
lradius 136.331
lwrist 18.1002
lhand -23.4457 -9.90631
lfingers 7.12502
lthumb 3.01267 20.0522
rfemur -88.4285 -14.6074 23.3778
rtibia 88.1898
rfoot -11.1779 -4.33627
rtoes -36.7004
lfemur 5.89826 -8.33842 -26.2228
ltibia 33.7418
lfoot -21.6731 -15.2085
ltoes -16.015
323
root 0.590082 14.8718 -26.5991 -156.663 -4.67818 171.912
lowerback 20.0733 -4.76029 -2.66847
upperback -1.01471 -6.88404 1.47466
thorax -11.8791 -3.02774 5.19152
lowerneck -20.4798 0.0504862 -2.77103
upperneck -1.57929 1.39469 1.99335
head 3.05388 1.12011 1.31255
rclavicle 8.15017e-015 1.70955e-014
rhumerus -87.0311 4.43915 -79.3378
rradius 75.4172
rwrist -17.0373
rhand -27.3985 10.0513
rfingers 7.12502
rthumb -0.804982 -19.9269
lclavicle 8.15017e-015 1.70955e-014
lhumerus -11.1291 -15.293 91.4289
lradius 138.15
lwrist 18.0983
lhand -23.0238 -10.0095
lfingers 7.12502
lthumb 3.42012 19.9429
rfemur -87.3678 -14.0562 23.8805
rtibia 88.4799
rfoot -11.6055 -4.25575
rtoes -35.8698
lfemur 6.54841 -9.10598 -26.2283
ltibia 32.664
lfoot -17.2282 -15.4538
ltoes -17.0803
324
root 0.601098 14.8977 -26.9794 -156.098 -3.94594 172.255
lowerback 19.5441 -4.58028 -2.42198
upperback -1.17204 -6.54192 1.67543
thorax -11.7911 -2.87516 5.13405
lowerneck -20.4843 0.0696852 -2.97422
upperneck -1.5883 1.47634 1.79886
head 3.04917 1.15081 1.29076
rclavicle 3.47873e-014 7.15625e-015
rhumerus -87.6367 4.38521 -79.0268
rradius 75.5568
rwrist -16.5636
rhand -27.1078 10.2324
rfingers 7.12502
rthumb -0.524188 -19.7467
lclavicle 3.47873e-014 7.15625e-015
lhumerus -12.0352 -16.8323 90.9227
lradius 139.334
lwrist 17.7882
lhand -22.4389 -10.2338
lfingers 7.12502
lthumb 3.98493 19.7087
rfemur -85.9491 -13.4081 24.2767
rtibia 88.4582
rfoot -12.7471 -4.40052
rtoes -35.1878
lfemur 6.88083 -9.79592 -26.3059
ltibia 31.7601
lfoot -12.0294 -15.7698
ltoes -17.6822
325
root 0.611789 14.9319 -27.3669 -155.475 -3.10342 172.539
lowerback 18.9956 -4.34789 -2.26254
upperback -1.33257 -6.15863 1.83737
thorax -11.6928 -2.69982 5.07215
lowerneck -20.489 0.0801682 -3.16705
upperneck -1.64002 1.55029 1.59707
head 3.0295 1.18023 1.26339
rclavicle 4.96962e-014 -3.57812e-015
rhumerus -87.7264 4.08253 -78.5481
rradius 75.3805
rwrist -16.411
rhand -26.8912 10.2161
rfingers 7.12502
rthumb -0.315052 -19.7634
lclavicle 4.96962e-014 -3.57812e-015
lhumerus -13.3188 -18.5578 90.6547
lradius 139.811
lwrist 17.0623
lhand -21.7576 -10.5059
lfingers 7.12502
lthumb 4.64287 19.4232
rfemur -84.2639 -12.7539 24.5504
rtibia 88.1246
rfoot -14.5279 -4.8328
rtoes -34.8148
lfemur 6.86906 -10.4124 -26.4509
ltibia 31.0399
lfoot -6.0539 -16.1007
ltoes -17.865
326
root 0.622856 14.9738 -27.7594 -154.807 -2.20133 172.714
lowerback 18.4665 -4.08655 -2.2258
upperback -1.49872 -5.77243 1.95566
thorax -11.6033 -2.51625 5.03599
lowerneck -20.5065 0.0918159 -3.33632
upperneck -1.71164 1.62508 1.38527
head 3.00519 1.21168 1.22842
rclavicle 3.02153e-014 -3.33958e-014
rhumerus -87.3151 3.56484 -77.9398
rradius 74.9354
rwrist -16.6756
rhand -26.7825 10.0526
rfingers 7.12502
rthumb -0.210016 -19.9271
lclavicle 3.02153e-014 -3.33958e-014
lhumerus -14.9788 -20.3531 90.6923
lradius 139.536
lwrist 15.9329
lhand -21.0533 -10.7684
lfingers 7.12502
lthumb 5.32288 19.1447
rfemur -82.4299 -12.176 24.6819
rtibia 87.5289
rfoot -16.7228 -5.62857
rtoes -34.8033
lfemur 6.49579 -10.9548 -26.668
ltibia 30.5513
lfoot 0.664037 -16.3546
ltoes -17.7624
327
root 0.6347 15.021 -28.1537 -154.099 -1.30107 172.744
lowerback 17.9755 -3.82544 -2.31091
upperback -1.67485 -5.42006 2.02421
thorax -11.5373 -2.34099 5.03035
lowerneck -20.5398 0.112771 -3.46709
upperneck -1.78762 1.70651 1.16235
head 2.98228 1.24716 1.18354
rclavicle -1.27222e-014 3.18055e-015
rhumerus -86.439 2.85536 -77.2501
rradius 74.2771
rwrist -17.3085
rhand -26.7849 9.75678
rfingers 7.12502
rthumb -0.212297 -20.2229
lclavicle -1.27222e-014 3.18055e-015
lhumerus -16.9978 -22.0876 91.0699
lradius 138.495
lwrist 14.4497
lhand -20.4463 -10.9124
lfingers 7.12502
lthumb 5.90897 18.9852
rfemur -80.599 -11.7516 24.6745
rtibia 86.7589
rfoot -19.0146 -6.77312
rtoes -35.1437
lfemur 5.75281 -11.4012 -26.9377
ltibia 30.3373
lfoot 8.03032 -16.4626
ltoes -16.9811
